<svg width="602" height="89" viewBox="0 0 602 89" fill="none" xmlns="http://www.w3.org/2000/svg">
<path d="M67.0898 95V24.541H52.3438V53.1543H20.6055V24.541H5.85938V95H20.6055V65.3125H52.3438V95H67.0898ZM77.832 95H92.0898V42.6562H77.832V95ZM84.9609 36.8945C89.2578 36.8945 92.5781 33.623 92.5781 29.5215C92.5781 25.3711 89.2578 22.1484 84.9609 22.1484C80.6641 22.1484 77.3438 25.3711 77.3438 29.5215C77.3438 33.623 80.6641 36.8945 84.9609 36.8945ZM112.109 110.43L118.652 82.8906H105.078L101.416 110.43H112.109ZM159.375 95V24.541H144.629V95H159.375ZM181.787 52.0312L188.33 24.541H174.805L171.143 52.0312H181.787ZM196.436 95H210.693V63.4082C210.693 57.5488 214.355 53.4473 219.775 53.4473C225.049 53.4473 228.223 56.7676 228.223 62.3828V95H241.943V63.2129C241.943 57.4023 245.508 53.4473 250.928 53.4473C256.445 53.4473 259.473 56.7676 259.473 62.8223V95H273.73V59.2578C273.73 48.7109 266.846 41.6797 256.592 41.6797C248.926 41.6797 242.676 45.8301 240.332 52.4219H240.039C238.281 45.5859 233.008 41.6797 225.439 41.6797C218.311 41.6797 212.695 45.8301 210.498 52.1289H210.205V42.6562H196.436V95ZM335.4 95V36.6992H355.811V24.541H300.293V36.6992H320.654V95H335.4ZM370.947 85.5273C366.113 85.5273 362.891 83.0859 362.891 79.1797C362.891 75.4688 365.918 73.0762 371.24 72.6855L382.275 72.002V75.8105C382.275 81.4746 377.148 85.5273 370.947 85.5273ZM366.26 95.8301C372.803 95.8301 379.297 92.5586 382.227 86.9922H382.52V95H396.289V59.0137C396.289 48.4668 387.549 41.5332 374.121 41.5332C360.254 41.5332 351.611 48.5156 351.074 58.6719H364.111C364.795 54.8145 368.164 52.1777 373.486 52.1777C378.857 52.1777 382.275 55.0098 382.275 59.8926V63.3594L369.092 64.1406C356.055 64.9219 348.73 70.4395 348.73 79.9609C348.73 89.3848 356.299 95.8301 366.26 95.8301ZM405.518 95H419.775V64.9707C419.775 58.1836 423.828 53.4961 430.225 53.4961C436.621 53.4961 439.844 57.4023 439.844 64.2383V95H454.102V61.2598C454.102 49.0039 447.559 41.6797 435.938 41.6797C427.881 41.6797 422.363 45.4883 419.58 51.9824H419.287V42.6562H405.518V95ZM463.135 95H477.393V64.9707C477.393 58.1836 481.445 53.4961 487.842 53.4961C494.238 53.4961 497.461 57.4023 497.461 64.2383V95H511.719V61.2598C511.719 49.0039 505.176 41.6797 493.555 41.6797C485.498 41.6797 479.98 45.4883 477.197 51.9824H476.904V42.6562H463.135V95ZM544.238 52.0801C550.586 52.0801 554.932 56.6699 555.225 63.3594H533.008C533.496 56.8164 537.988 52.0801 544.238 52.0801ZM555.42 78.9844C554.102 82.9883 550.098 85.5762 544.873 85.5762C537.598 85.5762 532.861 80.4492 532.861 72.9785V72.0996H568.945V67.7539C568.945 51.8359 559.326 41.5332 544.092 41.5332C528.613 41.5332 518.848 52.373 518.848 69.0723C518.848 85.8203 528.516 96.123 544.629 96.123C557.568 96.123 566.943 89.2383 568.506 78.9844H555.42ZM576.318 95H590.576V65.752C590.576 58.3789 594.678 54.082 601.709 54.082C603.76 54.082 605.713 54.4238 606.885 54.9121V42.3633C605.908 42.0703 604.492 41.8262 602.832 41.8262C596.68 41.8262 592.236 45.4395 590.381 52.0801H590.088V42.6562H576.318V95Z" transform="translate(-5 -22)" fill="url(#paint0_linear)"/>
<defs>
<linearGradient id="paint0_linear" x2="1" gradientUnits="userSpaceOnUse" gradientTransform="translate(-3.18075e-05 -1485.34) scale(609 3090.67)">
<stop stop-color="#00D0FA"/>
<stop offset="0.530387" stop-color="#BB9DF8"/>
</linearGradient>
</defs>
</svg>
