<svg width="821" height="48" viewBox="0 0 821 48" fill="none" xmlns="http://www.w3.org/2000/svg">
<path d="M5.29297 38V25.207H18.2227V22.8242H5.29297V12.2383H19.3555V9.81641H2.63672V38H5.29297ZM38.8672 17.6875H36.2891V29.7383C36.2891 33.5469 33.9062 36.0273 30.3711 36.0273C26.9727 36.0273 25.0586 34.0352 25.0586 30.4414V17.6875H22.4609V30.8906C22.4609 35.4609 25.2148 38.332 29.6289 38.332C32.8516 38.332 35.293 36.7305 36.3672 34.2305H36.4258V38H38.8672V17.6875ZM43.4961 38H46.0742V9.81641H43.4961V38ZM50.8789 38H53.457V9.81641H50.8789V38ZM65.332 30.3438C65.625 35.1875 69.7656 38.4492 75.6641 38.4492C81.8945 38.4492 85.8789 35.207 85.8789 30.2656C85.8789 26.3398 83.4961 24.1719 77.832 22.7461L74.7852 21.9648C70.6445 20.9102 68.8867 19.4844 68.8867 17.0625C68.8867 13.957 71.7773 11.7891 75.6836 11.7891C79.6875 11.7891 82.5 13.8984 82.7539 17.082H85.4297C85.2734 12.6094 81.25 9.36719 75.7617 9.36719C70.2148 9.36719 66.1133 12.6094 66.1133 17.1602C66.1133 20.8711 68.4375 23.0781 73.6523 24.4062L77.1484 25.3047C81.3281 26.3594 83.1445 27.9219 83.1445 30.5586C83.1445 33.7227 80.1172 36.0273 75.8984 36.0273C71.4844 36.0273 68.3008 33.7227 68.0078 30.3438H65.332ZM90.8008 12.6094V17.6875H87.7734V19.8359H90.8008V33C90.8008 36.6719 92.168 38.1172 95.5664 38.1172C96.1133 38.1172 97.207 38.0586 97.4805 38V35.793C97.3242 35.832 96.3477 35.8711 96.0742 35.8711C94.1992 35.8711 93.3789 34.9727 93.3789 32.8828V19.8359H97.3828V17.6875H93.3789V12.6094H90.8008ZM107.012 36.1055C104.258 36.1055 102.363 34.582 102.363 32.375C102.363 30.1289 104.141 28.7422 107.344 28.5273L113.359 28.1172V30.3633C113.359 33.5859 110.566 36.1055 107.012 36.1055ZM106.484 38.332C109.512 38.332 112.285 36.6523 113.418 34.1328H113.477V38H115.938V24.0938C115.938 19.9531 113.027 17.3555 108.398 17.3555C103.77 17.3555 100.781 19.9336 100.488 23.5664H102.988C103.438 21.1055 105.352 19.6406 108.34 19.6406C111.504 19.6406 113.359 21.3984 113.359 24.3281V26.0859L107.031 26.4766C102.344 26.7891 99.7461 28.8984 99.7461 32.375C99.7461 35.9297 102.48 38.332 106.484 38.332ZM136.797 24.1133C136.289 20.4805 133.223 17.3555 128.438 17.3555C122.91 17.3555 119.258 21.4375 119.258 27.8438C119.258 34.3477 122.91 38.332 128.457 38.332C132.949 38.332 136.25 35.5977 136.816 31.7109H134.258C133.672 34.3477 131.543 36.0469 128.477 36.0469C124.512 36.0469 121.895 32.9414 121.895 27.8438C121.895 22.8242 124.492 19.6406 128.457 19.6406C131.66 19.6406 133.711 21.6133 134.258 24.1133H136.797ZM142.812 27.2969V9.81641H140.215V38H142.812V30.1289L145.078 28.0391L153.203 38H156.23L146.934 26.457L156.055 17.6875H152.852L142.812 27.2969ZM167.363 9.81641V38H176.504C184.961 38 189.863 32.8242 189.863 23.8984C189.863 14.9922 184.941 9.81641 176.504 9.81641H167.363ZM170.039 12.2383H176.348C183.281 12.2383 187.148 16.418 187.148 23.918C187.148 31.3984 183.281 35.5781 176.348 35.5781H170.039V12.2383ZM201.621 19.6211C205.293 19.6211 207.734 22.4141 207.793 26.418H195.254C195.469 22.4141 197.988 19.6211 201.621 19.6211ZM207.637 32.2383C207.07 34.4648 204.941 36.0664 201.875 36.0664C197.832 36.0664 195.234 33.2148 195.234 28.625V28.4688H210.449V27.375C210.449 21.3203 207.051 17.3555 201.66 17.3555C196.152 17.3555 192.578 21.5938 192.578 27.9023C192.578 34.3477 196.113 38.332 201.816 38.332C206.289 38.332 209.59 35.7539 210.195 32.2383H207.637ZM229.844 17.6875H227.148L220.957 35.2852H220.898L214.727 17.6875H211.992L219.551 38H222.305L229.844 17.6875Z" fill="black"/>
<path d="M0.820312 31.5352C0.859375 35.6758 4.0625 38.5859 8.57422 38.5859C13.6328 38.5859 16.6406 35.4609 16.6406 30.2852V9.81641H13.9844V30.2461C13.9844 34.0156 12.0117 36.1055 8.57422 36.1055C5.66406 36.1055 3.57422 34.2305 3.45703 31.5352H0.820312ZM20.5664 30.3438C20.8594 35.1875 25 38.4492 30.8984 38.4492C37.1289 38.4492 41.1133 35.207 41.1133 30.2656C41.1133 26.3398 38.7305 24.1719 33.0664 22.7461L30.0195 21.9648C25.8789 20.9102 24.1211 19.4844 24.1211 17.0625C24.1211 13.957 27.0117 11.7891 30.918 11.7891C34.9219 11.7891 37.7344 13.8984 37.9883 17.082H40.6641C40.5078 12.6094 36.4844 9.36719 30.9961 9.36719C25.4492 9.36719 21.3477 12.6094 21.3477 17.1602C21.3477 20.8711 23.6719 23.0781 28.8867 24.4062L32.3828 25.3047C36.5625 26.3594 38.3789 27.9219 38.3789 30.5586C38.3789 33.7227 35.3516 36.0273 31.1328 36.0273C26.7188 36.0273 23.5352 33.7227 23.2422 30.3438H20.5664ZM70.2344 35.5781H55.8789V24.7578H69.5117V22.375H55.8789V12.2383H70.2344V9.81641H53.2227V38H70.2344V35.5781ZM74.375 38H76.9531V25.9688C76.9531 22.1992 79.3164 19.6602 82.832 19.6602C86.2305 19.6602 88.1836 21.6914 88.1836 25.2461V38H90.7617V24.8359C90.7617 20.2266 88.0273 17.3555 83.5742 17.3555C80.293 17.3555 77.9102 18.9766 76.875 21.4375H76.8164V17.6875H74.375V38ZM96.2305 12.6094V17.6875H93.2031V19.8359H96.2305V33C96.2305 36.6719 97.5977 38.1172 100.996 38.1172C101.543 38.1172 102.637 38.0586 102.91 38V35.793C102.754 35.832 101.777 35.8711 101.504 35.8711C99.6289 35.8711 98.8086 34.9727 98.8086 32.8828V19.8359H102.812V17.6875H98.8086V12.6094H96.2305ZM106.66 38H109.258V26.0469C109.258 22.2188 111.621 19.6602 115.273 19.6602C118.711 19.6602 120.684 21.7891 120.684 25.3047V38H123.281V24.875C123.281 20.3242 120.469 17.3555 116.016 17.3555C112.773 17.3555 110.352 18.9375 109.316 21.4375H109.258V9.81641H106.66V38ZM143.906 17.6875H141.328V29.7383C141.328 33.5469 138.945 36.0273 135.41 36.0273C132.012 36.0273 130.098 34.0352 130.098 30.4414V17.6875H127.5V30.8906C127.5 35.4609 130.254 38.332 134.668 38.332C137.891 38.332 140.332 36.7305 141.406 34.2305H141.465V38H143.906V17.6875ZM147.949 23.1172C147.949 25.8125 149.707 27.5508 153.379 28.4688L156.68 29.2891C159.395 29.9531 160.41 30.8906 160.41 32.6484C160.41 34.7773 158.398 36.2031 155.352 36.2031C152.305 36.2031 150.312 34.7188 149.941 32.3164H147.363C147.695 35.8906 150.84 38.332 155.195 38.332C159.785 38.332 163.008 35.8906 163.008 32.4531C163.008 29.543 161.484 28.0586 157.422 27.043L154.414 26.3203C151.699 25.6562 150.508 24.6406 150.508 22.9805C150.508 20.9492 152.402 19.4844 155.176 19.4844C157.988 19.4844 159.844 20.9688 160.156 23.3711H162.637C162.383 19.7969 159.414 17.3555 155.254 17.3555C150.957 17.3555 147.949 19.7578 147.949 23.1172ZM166.66 38H169.238V17.6875H166.66V38ZM167.949 13.5859C168.906 13.5859 169.688 12.8242 169.688 11.8672C169.688 10.9297 168.906 10.168 167.949 10.168C167.012 10.168 166.23 10.9297 166.23 11.8672C166.23 12.8242 167.012 13.5859 167.949 13.5859ZM180.41 36.1055C177.656 36.1055 175.762 34.582 175.762 32.375C175.762 30.1289 177.539 28.7422 180.742 28.5273L186.758 28.1172V30.3633C186.758 33.5859 183.965 36.1055 180.41 36.1055ZM179.883 38.332C182.91 38.332 185.684 36.6523 186.816 34.1328H186.875V38H189.336V24.0938C189.336 19.9531 186.426 17.3555 181.797 17.3555C177.168 17.3555 174.18 19.9336 173.887 23.5664H176.387C176.836 21.1055 178.75 19.6406 181.738 19.6406C184.902 19.6406 186.758 21.3984 186.758 24.3281V26.0859L180.43 26.4766C175.742 26.7891 173.145 28.8984 173.145 32.375C173.145 35.9297 175.879 38.332 179.883 38.332ZM193.262 23.1172C193.262 25.8125 195.02 27.5508 198.691 28.4688L201.992 29.2891C204.707 29.9531 205.723 30.8906 205.723 32.6484C205.723 34.7773 203.711 36.2031 200.664 36.2031C197.617 36.2031 195.625 34.7188 195.254 32.3164H192.676C193.008 35.8906 196.152 38.332 200.508 38.332C205.098 38.332 208.32 35.8906 208.32 32.4531C208.32 29.543 206.797 28.0586 202.734 27.043L199.727 26.3203C197.012 25.6562 195.82 24.6406 195.82 22.9805C195.82 20.9492 197.715 19.4844 200.488 19.4844C203.301 19.4844 205.156 20.9688 205.469 23.3711H207.949C207.695 19.7969 204.727 17.3555 200.566 17.3555C196.27 17.3555 193.262 19.7578 193.262 23.1172ZM212.91 12.6094V17.6875H209.883V19.8359H212.91V33C212.91 36.6719 214.277 38.1172 217.676 38.1172C218.223 38.1172 219.316 38.0586 219.59 38V35.793C219.434 35.832 218.457 35.8711 218.184 35.8711C216.309 35.8711 215.488 34.9727 215.488 32.8828V19.8359H219.492V17.6875H215.488V12.6094H212.91Z" transform="translate(348)" fill="black"/>
<path d="M1.26953 30.3438C1.5625 35.1875 5.70312 38.4492 11.6016 38.4492C17.832 38.4492 21.8164 35.207 21.8164 30.2656C21.8164 26.3398 19.4336 24.1719 13.7695 22.7461L10.7227 21.9648C6.58203 20.9102 4.82422 19.4844 4.82422 17.0625C4.82422 13.957 7.71484 11.7891 11.6211 11.7891C15.625 11.7891 18.4375 13.8984 18.6914 17.082H21.3672C21.2109 12.6094 17.1875 9.36719 11.6992 9.36719C6.15234 9.36719 2.05078 12.6094 2.05078 17.1602C2.05078 20.8711 4.375 23.0781 9.58984 24.4062L13.0859 25.3047C17.2656 26.3594 19.082 27.9219 19.082 30.5586C19.082 33.7227 16.0547 36.0273 11.8359 36.0273C7.42188 36.0273 4.23828 33.7227 3.94531 30.3438H1.26953ZM26.7383 12.6094V17.6875H23.7109V19.8359H26.7383V33C26.7383 36.6719 28.1055 38.1172 31.5039 38.1172C32.0508 38.1172 33.1445 38.0586 33.418 38V35.793C33.2617 35.832 32.2852 35.8711 32.0117 35.8711C30.1367 35.8711 29.3164 34.9727 29.3164 32.8828V19.8359H33.3203V17.6875H29.3164V12.6094H26.7383ZM53.2812 17.6875H50.7031V29.7383C50.7031 33.5469 48.3203 36.0273 44.7852 36.0273C41.3867 36.0273 39.4727 34.0352 39.4727 30.4414V17.6875H36.875V30.8906C36.875 35.4609 39.6289 38.332 44.043 38.332C47.2656 38.332 49.707 36.7305 50.7812 34.2305H50.8398V38H53.2812V17.6875ZM65.4102 38.332C68.6914 38.332 71.2891 36.4375 72.4414 33.7031H72.5V38H74.9609V9.81641H72.3633V21.8672H72.3047C71.2305 19.2305 68.6328 17.3555 65.3516 17.3555C60.2539 17.3555 56.7188 21.5156 56.7188 27.8438C56.7188 34.1523 60.2734 38.332 65.4102 38.332ZM65.8594 19.6406C69.7266 19.6406 72.3828 22.9414 72.3828 27.8438C72.3828 32.7656 69.7266 36.0469 65.8594 36.0469C61.9531 36.0469 59.375 32.8047 59.375 27.8438C59.375 22.8828 61.9531 19.6406 65.8594 19.6406ZM87.6367 19.6211C91.3086 19.6211 93.75 22.4141 93.8086 26.418H81.2695C81.4844 22.4141 84.0039 19.6211 87.6367 19.6211ZM93.6523 32.2383C93.0859 34.4648 90.957 36.0664 87.8906 36.0664C83.8477 36.0664 81.25 33.2148 81.25 28.625V28.4688H96.4648V27.375C96.4648 21.3203 93.0664 17.3555 87.6758 17.3555C82.168 17.3555 78.5938 21.5938 78.5938 27.9023C78.5938 34.3477 82.1289 38.332 87.832 38.332C92.3047 38.332 95.6055 35.7539 96.2109 32.2383H93.6523ZM99.9219 38H102.5V25.9688C102.5 22.1992 104.863 19.6602 108.379 19.6602C111.777 19.6602 113.73 21.6914 113.73 25.2461V38H116.309V24.8359C116.309 20.2266 113.574 17.3555 109.121 17.3555C105.84 17.3555 103.457 18.9766 102.422 21.4375H102.363V17.6875H99.9219V38ZM121.777 12.6094V17.6875H118.75V19.8359H121.777V33C121.777 36.6719 123.145 38.1172 126.543 38.1172C127.09 38.1172 128.184 38.0586 128.457 38V35.793C128.301 35.832 127.324 35.8711 127.051 35.8711C125.176 35.8711 124.355 34.9727 124.355 32.8828V19.8359H128.359V17.6875H124.355V12.6094H121.777Z" transform="translate(691)" fill="black"/>
<circle cx="6" cy="6" r="6" transform="translate(287 18)" fill="black"/>
<circle cx="6" cy="6" r="6" transform="translate(626 18)" fill="black"/>
</svg>
