<svg width="1000" height="1000" viewBox="0 0 1000 1000" fill="none" xmlns="http://www.w3.org/2000/svg">
<rect width="1000" height="1000" fill="white"/>
<path d="M677.918 477.114C671.244 492.452 663.345 506.57 654.192 519.55C641.717 537.245 631.502 549.493 623.63 556.294C611.426 567.459 598.351 573.177 584.35 573.502C574.299 573.502 562.178 570.656 548.068 564.885C533.911 559.14 520.902 556.294 509.006 556.294C496.531 556.294 483.151 559.14 468.839 564.885C454.506 570.656 442.959 573.664 434.131 573.962C420.705 574.531 407.322 568.651 393.964 556.294C385.438 548.897 374.774 536.215 361.998 518.249C348.292 499.064 337.023 476.816 328.194 451.453C318.74 424.056 314 397.528 314 371.844C314 342.424 320.39 317.049 333.19 295.786C343.25 278.706 356.632 265.233 373.382 255.342C390.131 245.451 408.229 240.411 427.719 240.089C438.383 240.089 452.368 243.37 469.746 249.819C487.076 256.29 498.203 259.572 503.082 259.572C506.729 259.572 519.09 255.735 540.046 248.085C559.862 240.991 576.587 238.053 590.289 239.211C627.416 242.191 655.309 256.751 673.859 282.982C640.654 302.996 624.229 331.029 624.556 366.991C624.855 395.002 635.07 418.312 655.145 436.82C664.243 445.41 674.404 452.049 685.708 456.764C683.256 463.836 680.669 470.611 677.918 477.114V477.114ZM592.767 143.782C592.767 165.737 584.705 186.237 568.633 205.211C549.239 227.767 525.78 240.801 500.342 238.744C500.017 236.111 499.829 233.338 499.829 230.425C499.829 209.349 509.053 186.792 525.432 168.349C533.609 159.011 544.009 151.247 556.621 145.053C569.205 138.952 581.109 135.578 592.304 135C592.631 137.935 592.767 140.87 592.767 143.782V143.782Z" fill="#FE2B54"/>
<path d="M291.844 784V657.174H261.082L225.047 748.229H224.344L188.309 657.174H157.547V784H181.189V698.395H181.893L216.346 784H233.045L267.498 698.395H268.201V784H291.844ZM339.48 657.174H312.938V739.176C312.938 767.125 333.592 786.197 366.111 786.197C398.543 786.197 419.197 767.125 419.197 739.176V657.174H392.654V736.539C392.654 752.799 383.074 763.434 366.111 763.434C349.061 763.434 339.48 752.799 339.48 736.539V657.174ZM435.545 747.789C436.336 771.695 456.463 786.197 486.697 786.197C518.426 786.197 537.85 770.465 537.85 745.68C537.85 726.432 526.16 715.621 499.354 710.26L485.906 707.535C470.965 704.547 464.812 699.713 464.812 691.891C464.812 682.574 473.602 676.422 486.697 676.422C500.057 676.422 509.461 682.926 510.34 693.736H535.389C534.949 670.445 516.316 654.977 486.697 654.977C458.484 654.977 438.27 670.357 438.27 693.561C438.27 712.457 450.662 724.586 475.975 729.596L489.334 732.232C505.242 735.484 511.219 740.23 511.219 748.58C511.219 757.896 501.551 764.752 487.4 764.752C472.986 764.752 462.264 758.424 460.594 747.789H435.545ZM580.652 784V657.174H554.109V784H580.652ZM657.82 786.197C688.934 786.197 710.643 768.268 713.631 739.967H687.791C684.979 754.996 673.641 764.225 657.908 764.225C637.605 764.225 624.861 747.525 624.861 720.455C624.861 693.736 637.781 676.949 657.82 676.949C673.289 676.949 685.242 687.145 687.703 702.701H713.543C711.521 674.312 688.318 654.977 657.82 654.977C621.082 654.977 597.791 679.674 597.791 720.543C597.791 761.5 620.906 786.197 657.82 786.197Z" fill="#FE2B54"/>
<path d="M739.043 784.732C743.73 784.732 747.393 781.07 747.393 776.383C747.393 771.695 743.73 768.033 739.043 768.033C734.355 768.033 730.693 771.695 730.693 776.383C730.693 781.07 734.355 784.732 739.043 784.732ZM779.766 707.828H767.021V787.882C767.021 796.378 764.019 799.527 755.742 799.527C755.669 799.527 753.911 799.527 753.765 799.527V810.147C753.911 810.221 755.962 810.221 756.182 810.221C772.441 810.221 779.766 803.189 779.766 787.735V707.828ZM773.32 694.278C777.788 694.278 781.304 690.689 781.304 686.295C781.304 681.827 777.788 678.312 773.32 678.312C768.926 678.312 765.337 681.827 765.337 686.295C765.337 690.689 768.926 694.278 773.32 694.278ZM795.659 728.849C795.659 739.835 802.617 746.5 816.973 749.942L829.058 752.872C837.773 754.996 840.776 758.146 840.776 763.639C840.776 770.523 834.404 774.918 824.077 774.918C813.75 774.918 807.891 770.743 806.353 762.027H793.608C795.073 776.31 806.206 785.318 824.077 785.318C841.069 785.318 853.594 775.943 853.594 762.687C853.594 751.773 848.027 745.768 832.646 742.032L820.562 739.103C812.065 737.052 808.184 733.463 808.184 728.189C808.184 721.524 814.336 716.91 823.638 716.91C833.013 716.91 838.872 721.817 839.824 729.801H851.982C851.47 716.324 840.337 706.51 823.638 706.51C807.158 706.51 795.659 715.812 795.659 728.849Z" fill="#818181"/>
</svg>
