<svg width="455" height="311" viewBox="0 0 455 311" fill="none" xmlns="http://www.w3.org/2000/svg">
<path d="M0 0H455V282H0V0Z" fill="white"/>
<g filter="url(#filter0_d)">
<rect width="239.326" height="117.943" fill="white" transform="translate(114 191.395) scale(1.22566 0.705521) rotate(-45)"/>
<rect x="0.5" y="0.5" width="238.326" height="116.943" transform="translate(114 191.395) scale(1.22566 0.705521) rotate(-45)" fill="white" stroke="#CDCDCD"/>
<rect width="21.6229" height="20.64" transform="translate(132.314 193.601) scale(1.22566 0.705521) rotate(-45)" fill="#6CFF92"/>
<rect x="0.5" y="0.5" width="20.6229" height="19.64" transform="translate(132.314 193.601) scale(1.22566 0.705521) rotate(-45)" stroke="black" stroke-opacity="0.16"/>
<rect width="21.6229" height="20.64" transform="translate(152.332 205.124) scale(1.22566 0.705521) rotate(-45)" fill="#FFFF99"/>
<rect x="0.5" y="0.5" width="20.6229" height="19.64" transform="translate(152.332 205.124) scale(1.22566 0.705521) rotate(-45)" stroke="black" stroke-opacity="0.16"/>
<rect width="21.6229" height="20.64" transform="translate(172.349 216.646) scale(1.22566 0.705521) rotate(-45)" fill="#FDDAB6"/>
<rect x="0.5" y="0.5" width="20.6229" height="19.64" transform="translate(172.349 216.646) scale(1.22566 0.705521) rotate(-45)" stroke="black" stroke-opacity="0.16"/>
<rect width="21.6229" height="20.64" transform="translate(173.201 193.111) scale(1.22566 0.705521) rotate(-45)" fill="#6CFF92"/>
<rect x="0.5" y="0.5" width="20.6229" height="19.64" transform="translate(173.201 193.111) scale(1.22566 0.705521) rotate(-45)" stroke="black" stroke-opacity="0.16"/>
<rect width="21.6229" height="20.64" transform="translate(193.219 204.634) scale(1.22566 0.705521) rotate(-45)" fill="#FFFF99"/>
<rect x="0.5" y="0.5" width="20.6229" height="19.64" transform="translate(193.219 204.634) scale(1.22566 0.705521) rotate(-45)" stroke="black" stroke-opacity="0.16"/>
<rect width="21.6229" height="20.64" transform="translate(153.184 181.588) scale(1.22566 0.705521) rotate(-45)" fill="#FDDAB6"/>
<rect x="0.5" y="0.5" width="20.6229" height="19.64" transform="translate(153.184 181.588) scale(1.22566 0.705521) rotate(-45)" stroke="black" stroke-opacity="0.16"/>
<rect width="21.6229" height="20.64" transform="translate(214.088 192.62) scale(1.22566 0.705521) rotate(-45)" fill="#6CFF92"/>
<rect x="0.5" y="0.5" width="20.6229" height="19.64" transform="translate(214.088 192.62) scale(1.22566 0.705521) rotate(-45)" stroke="black" stroke-opacity="0.16"/>
<rect width="21.6229" height="20.64" transform="translate(174.053 169.575) scale(1.22566 0.705521) rotate(-45)" fill="#FFFF99"/>
<rect x="0.5" y="0.5" width="20.6229" height="19.64" transform="translate(174.053 169.575) scale(1.22566 0.705521) rotate(-45)" stroke="black" stroke-opacity="0.16"/>
<rect width="21.6229" height="20.64" transform="translate(194.071 181.098) scale(1.22566 0.705521) rotate(-45)" fill="#FDDAB6"/>
<rect x="0.5" y="0.5" width="20.6229" height="19.64" transform="translate(194.071 181.098) scale(1.22566 0.705521) rotate(-45)" stroke="black" stroke-opacity="0.16"/>
<rect width="21.6229" height="20.64" transform="translate(198.33 155.601) scale(1.22566 0.705521) rotate(-45)" fill="#6CFF92"/>
<rect x="0.5" y="0.5" width="20.6229" height="19.64" transform="translate(198.33 155.601) scale(1.22566 0.705521) rotate(-45)" stroke="black" stroke-opacity="0.16"/>
<rect width="21.6229" height="20.64" transform="translate(218.347 167.123) scale(1.22566 0.705521) rotate(-45)" fill="#FFFF99"/>
<rect x="0.5" y="0.5" width="20.6229" height="19.64" transform="translate(218.347 167.123) scale(1.22566 0.705521) rotate(-45)" stroke="black" stroke-opacity="0.16"/>
<rect width="21.6229" height="20.64" transform="translate(238.365 178.646) scale(1.22566 0.705521) rotate(-45)" fill="#FDDAB6"/>
<rect x="0.5" y="0.5" width="20.6229" height="19.64" transform="translate(238.365 178.646) scale(1.22566 0.705521) rotate(-45)" stroke="black" stroke-opacity="0.16"/>
<rect width="21.6229" height="20.64" transform="translate(239.217 155.11) scale(1.22566 0.705521) rotate(-45)" fill="#6CFF92"/>
<rect x="0.5" y="0.5" width="20.6229" height="19.64" transform="translate(239.217 155.11) scale(1.22566 0.705521) rotate(-45)" stroke="black" stroke-opacity="0.16"/>
<rect width="21.6229" height="20.64" transform="translate(219.199 143.588) scale(1.22566 0.705521) rotate(-45)" fill="#FDDAB6"/>
<rect x="0.5" y="0.5" width="20.6229" height="19.64" transform="translate(219.199 143.588) scale(1.22566 0.705521) rotate(-45)" stroke="black" stroke-opacity="0.16"/>
<rect width="21.6229" height="20.64" transform="translate(280.104 154.62) scale(1.22566 0.705521) rotate(-45)" fill="#6CFF92"/>
<rect x="0.5" y="0.5" width="20.6229" height="19.64" transform="translate(280.104 154.62) scale(1.22566 0.705521) rotate(-45)" stroke="black" stroke-opacity="0.16"/>
<rect width="21.6229" height="20.64" transform="translate(240.069 131.575) scale(1.22566 0.705521) rotate(-45)" fill="#FFFF99"/>
<rect x="0.5" y="0.5" width="20.6229" height="19.64" transform="translate(240.069 131.575) scale(1.22566 0.705521) rotate(-45)" stroke="black" stroke-opacity="0.16"/>
<rect width="21.6229" height="20.64" transform="translate(260.086 143.097) scale(1.22566 0.705521) rotate(-45)" fill="#FDDAB6"/>
<rect x="0.5" y="0.5" width="20.6229" height="19.64" transform="translate(260.086 143.097) scale(1.22566 0.705521) rotate(-45)" stroke="black" stroke-opacity="0.16"/>
<rect width="21.6229" height="20.64" transform="translate(264.345 117.6) scale(1.22566 0.705521) rotate(-45)" fill="#6CFF92"/>
<rect x="0.5" y="0.5" width="20.6229" height="19.64" transform="translate(264.345 117.6) scale(1.22566 0.705521) rotate(-45)" stroke="black" stroke-opacity="0.16"/>
<rect width="21.6229" height="20.64" transform="translate(284.363 129.123) scale(1.22566 0.705521) rotate(-45)" fill="#FFFF99"/>
<rect x="0.5" y="0.5" width="20.6229" height="19.64" transform="translate(284.363 129.123) scale(1.22566 0.705521) rotate(-45)" stroke="black" stroke-opacity="0.16"/>
<rect width="21.6229" height="20.64" transform="translate(304.381 140.646) scale(1.22566 0.705521) rotate(-45)" fill="#FDDAB6"/>
<rect x="0.5" y="0.5" width="20.6229" height="19.64" transform="translate(304.381 140.646) scale(1.22566 0.705521) rotate(-45)" stroke="black" stroke-opacity="0.16"/>
<rect width="21.6229" height="20.64" transform="translate(305.232 117.11) scale(1.22566 0.705521) rotate(-45)" fill="#6CFF92"/>
<rect x="0.5" y="0.5" width="20.6229" height="19.64" transform="translate(305.232 117.11) scale(1.22566 0.705521) rotate(-45)" stroke="black" stroke-opacity="0.16"/>
<rect width="21.6229" height="20.64" transform="translate(325.25 128.633) scale(1.22566 0.705521) rotate(-45)" fill="#FFFF99"/>
<rect x="0.5" y="0.5" width="20.6229" height="19.64" transform="translate(325.25 128.633) scale(1.22566 0.705521) rotate(-45)" stroke="black" stroke-opacity="0.16"/>
<rect width="21.6229" height="20.64" transform="translate(285.215 105.587) scale(1.22566 0.705521) rotate(-45)" fill="#FDDAB6"/>
<rect x="0.5" y="0.5" width="20.6229" height="19.64" transform="translate(285.215 105.587) scale(1.22566 0.705521) rotate(-45)" stroke="black" stroke-opacity="0.16"/>
<rect width="21.6229" height="20.64" transform="translate(306.084 93.5745) scale(1.22566 0.705521) rotate(-45)" fill="#FFFF99"/>
<rect x="0.5" y="0.5" width="20.6229" height="19.64" transform="translate(306.084 93.5745) scale(1.22566 0.705521) rotate(-45)" stroke="black" stroke-opacity="0.16"/>
<rect width="21.6229" height="20.64" transform="translate(192.367 228.169) scale(1.22566 0.705521) rotate(-45)" fill="#6CFF92"/>
<rect x="0.5" y="0.5" width="20.6229" height="19.64" transform="translate(192.367 228.169) scale(1.22566 0.705521) rotate(-45)" stroke="black" stroke-opacity="0.16"/>
<rect width="21.6229" height="20.64" transform="translate(300.122 166.143) scale(1.22566 0.705521) rotate(-45)" fill="#FDDAB6"/>
<rect x="0.5" y="0.5" width="20.6229" height="19.64" transform="translate(300.122 166.143) scale(1.22566 0.705521) rotate(-45)" stroke="black" stroke-opacity="0.16"/>
<rect width="21.6229" height="20.64" transform="translate(345.268 140.156) scale(1.22566 0.705521) rotate(-45)" fill="#FDDAB6"/>
<rect x="0.5" y="0.5" width="20.6229" height="19.64" transform="translate(345.268 140.156) scale(1.22566 0.705521) rotate(-45)" stroke="black" stroke-opacity="0.16"/>
<rect width="21.6229" height="20.64" transform="translate(326.102 105.097) scale(1.22566 0.705521) rotate(-45)" fill="#FDDAB6"/>
<rect x="0.5" y="0.5" width="20.6229" height="19.64" transform="translate(326.102 105.097) scale(1.22566 0.705521) rotate(-45)" stroke="black" stroke-opacity="0.16"/>
<g filter="url(#filter1_d)">
<rect width="239.326" height="9.33715" transform="translate(114 191.395) scale(1.22566 0.705521) rotate(-45)" fill="#F2F2F2"/>
</g>
</g>
<path d="M25.7895 0H4.21053C1.88512 0 0 1.88512 0 4.21053V25.7895C0 28.1149 1.88512 30 4.21053 30H25.7895C28.1149 30 30 28.1149 30 25.7895V4.21053C30 1.88512 28.1149 0 25.7895 0Z" transform="translate(44 39) scale(3)" fill="white"/>
<path d="M25 0H3.42105C1.53166 0 0 1.53166 0 3.42105V25C0 26.8894 1.53166 28.4211 3.42105 28.4211H25C26.8894 28.4211 28.4211 26.8894 28.4211 25V3.42105C28.4211 1.53166 26.8894 0 25 0Z" transform="translate(46.3687 41.3684) scale(3)" stroke="#2D9CDB" stroke-width="3"/>
<path d="M11.3847 0H2.82582C1.26516 0 0 1.26516 0 2.82582C0 4.38647 1.26516 5.65163 2.82582 5.65163H11.3847C12.9454 5.65163 14.2105 4.38647 14.2105 2.82582C14.2105 1.26516 12.9454 0 11.3847 0Z" transform="translate(67.6841 51.6316) scale(3)" fill="#4F4F4F"/>
<path d="M8.33961 0H2.82582C1.26516 0 0 1.26516 0 2.82582C0 4.38647 1.26516 5.65163 2.82582 5.65163H8.33961C9.90026 5.65163 11.1654 4.38647 11.1654 2.82582C11.1654 1.26516 9.90026 0 8.33961 0Z" transform="translate(67.6841 77.8346) scale(3)" fill="#4F4F4F"/>
<path d="M18.7876 0H2.79135C1.24973 0 0 1.24973 0 2.79134C0 4.33296 1.24973 5.58268 2.79135 5.58268H18.7876C20.3292 5.58268 21.5789 4.33296 21.5789 2.79134C21.5789 1.24973 20.3292 0 18.7876 0Z" transform="translate(67.6841 116.368) scale(3) rotate(-90)" fill="#4F4F4F"/>
<defs>
<filter id="filter0_d" x="84" y="72" width="369.635" height="238.234" filterUnits="userSpaceOnUse" color-interpolation-filters="sRGB">
<feFlood flood-opacity="0" result="BackgroundImageFix"/>
<feColorMatrix in="SourceAlpha" type="matrix" values="0 0 0 0 0 0 0 0 0 0 0 0 0 0 0 0 0 0 255 0"/>
<feOffset dy="30"/>
<feGaussianBlur stdDeviation="15"/>
<feColorMatrix type="matrix" values="0 0 0 0 0 0 0 0 0 0 0 0 0 0 0 0 0 0 0.25 0"/>
<feBlend mode="normal" in2="BackgroundImageFix" result="effect1_dropShadow"/>
<feBlend mode="normal" in="SourceGraphic" in2="effect1_dropShadow" result="shape"/>
</filter>
<filter id="filter1_d" x="114" y="72" width="215.509" height="125.053" filterUnits="userSpaceOnUse" color-interpolation-filters="sRGB">
<feFlood flood-opacity="0" result="BackgroundImageFix"/>
<feColorMatrix in="SourceAlpha" type="matrix" values="0 0 0 0 0 0 0 0 0 0 0 0 0 0 0 0 0 0 255 0"/>
<feOffset dy="1"/>
<feColorMatrix type="matrix" values="0 0 0 0 0 0 0 0 0 0 0 0 0 0 0 0 0 0 0.18 0"/>
<feBlend mode="normal" in2="BackgroundImageFix" result="effect1_dropShadow"/>
<feBlend mode="normal" in="SourceGraphic" in2="effect1_dropShadow" result="shape"/>
</filter>
</defs>
</svg>
