<svg width="628" height="602" viewBox="0 0 628 602" fill="none" xmlns="http://www.w3.org/2000/svg">
<path fill-rule="evenodd" clip-rule="evenodd" d="M363.685 185.492L398.58 231.955C401.473 235.812 401.637 242.222 398.943 246.22L397.179 248.829C394.493 252.818 389.091 258.365 385.181 261.158L380.985 264.133C377.083 266.92 370.761 266.818 366.95 263.902L320.864 228.666C317.053 225.748 310.808 225.748 306.995 228.666L260.911 263.902C257.096 266.82 250.742 266.963 246.81 264.234L243.764 262.126C239.83 259.382 234.351 253.901 231.613 249.947L228.984 246.146C226.246 242.199 226.364 235.813 229.245 231.956L264.188 185.471C267.068 181.613 267.068 175.326 264.188 171.471L229.245 124.973C226.364 121.117 226.255 114.752 229.015 110.808L231.985 106.576C234.735 102.631 240.235 97.183 244.193 94.4769L246.787 92.6977C250.742 89.978 257.096 90.1568 260.911 93.0601L306.996 128.298C310.809 131.214 317.053 131.214 320.864 128.298L366.951 93.0601C370.761 90.155 377.247 89.7665 381.38 92.2212L386.2 95.093C390.33 97.5454 395.601 103.013 397.923 107.237L399.622 110.329C401.933 114.541 401.473 121.148 398.58 125.004L363.685 171.492C360.791 175.346 360.791 181.647 363.685 185.492ZM314.499 0C217.02 0 138 79.6897 138 177.989C138 276.299 217.02 356 314.499 356C411.98 356 491 276.299 491 177.989C491 79.6897 411.98 0 314.499 0Z" fill="#0071CE"/>
<path fill-rule="evenodd" clip-rule="evenodd" d="M366.178 527.642L411.898 481.576C418.288 475.142 418.288 464.704 411.898 458.266C405.51 451.83 395.15 451.83 388.764 458.266L343.043 504.333L297.323 458.266C290.935 451.83 280.578 451.83 274.188 458.266C267.798 464.704 267.798 475.14 274.188 481.576L319.909 527.642L274.188 573.707C267.798 580.143 267.798 590.58 274.188 597.018C277.383 600.237 281.568 601.845 285.756 601.845C289.941 601.845 294.13 600.237 297.323 597.018L343.043 550.952L388.762 597.018C391.959 600.237 396.141 601.845 400.33 601.845C404.517 601.845 408.705 600.237 411.898 597.018C418.286 590.58 418.286 580.143 411.898 573.707L366.178 527.642ZM549.747 483.086H518.89C510.76 483.086 504.092 476.366 504.092 468.172C504.092 459.983 510.76 453.258 518.89 453.258H612.708C620.839 453.258 627.509 459.983 627.509 468.172C627.509 476.366 620.839 483.086 612.708 483.086H581.853V585.381C581.853 594.415 574.763 601.557 565.799 601.557C556.835 601.557 549.747 594.415 549.747 585.381V483.086V483.086ZM447.177 468.172C447.177 459.141 454.265 452 463.229 452C472.193 452 479.281 459.141 479.281 468.172V585.381C479.281 594.415 472.193 601.557 463.229 601.557C454.265 601.557 447.177 594.415 447.177 585.381V468.172V468.172ZM206.806 468.172C206.806 459.141 213.894 452 222.856 452C231.822 452 238.91 459.141 238.91 468.172V585.381C238.91 594.415 231.822 601.557 222.856 601.557C213.894 601.557 206.806 594.415 206.806 585.381V468.172ZM68.5844 469.434C68.5844 460.4 75.6745 453.258 84.6403 453.258H166.362C174.493 453.258 180.955 459.771 180.955 467.962C180.955 476.154 174.493 482.667 166.362 482.667H100.692V513.963H156.982C165.111 513.963 171.571 520.476 171.571 528.666C171.571 536.861 165.111 543.37 156.982 543.37H100.692V585.381C100.692 594.415 93.6023 601.557 84.6403 601.557C75.6745 601.557 68.5844 594.415 68.5844 585.381V469.434V469.434ZM0 468.172C0 459.141 7.08819 452 16.0502 452C25.016 452 32.1023 459.141 32.1023 468.172V585.381C32.1023 594.415 25.016 601.557 16.0502 601.557C7.08819 601.557 0 594.415 0 585.381V468.172Z" fill="#1F2123"/>
</svg>
