<svg width="296" height="296" viewBox="0 0 296 296" fill="none" xmlns="http://www.w3.org/2000/svg">
<circle cx="148" cy="148" r="148" fill="#FF7272"/>
<path d="M43.672 175.84V147.68C43.672 145.589 44.056 143.648 44.824 141.856C45.6347 140.021 46.7227 138.421 48.088 137.056C49.4533 135.691 51.032 134.624 52.824 133.856C54.616 133.045 56.5787 132.64 58.712 132.64C60.8027 132.64 62.872 133.067 64.92 133.92C66.84 134.731 68.5253 135.861 69.976 137.312C71.4267 138.763 72.5787 140.469 73.432 142.432C74.2427 144.224 74.648 146.293 74.648 148.64C74.648 150.987 74.2427 153.056 73.432 154.848C72.536 156.853 71.384 158.56 69.976 159.968C68.44 161.547 66.7547 162.677 64.92 163.36C62.872 164.213 60.8027 164.64 58.712 164.64C56.792 164.64 55.064 164.32 53.528 163.68C53.0587 163.467 52.632 163.253 52.248 163.04C51.864 162.784 51.5013 162.528 51.16 162.272C50.8187 162.059 50.4773 162.037 50.136 162.208C49.7947 162.379 49.624 162.656 49.624 163.04V175.84C49.624 176.651 49.3253 177.355 48.728 177.952C48.1733 178.507 47.4693 178.784 46.616 178.784C45.7627 178.784 45.0587 178.507 44.504 177.952C43.9493 177.397 43.672 176.693 43.672 175.84ZM58.712 138.272C56.7067 138.272 54.8933 138.763 53.272 139.744C51.6507 140.725 50.4133 142.027 49.56 143.648C48.7067 145.269 48.28 146.933 48.28 148.64C48.28 150.432 48.7067 152.075 49.56 153.568C50.4133 155.275 51.6507 156.597 53.272 157.536C54.8933 158.517 56.7067 159.008 58.712 159.008C60.248 159.008 61.592 158.731 62.744 158.176C63.2987 157.963 63.8747 157.664 64.472 157.28C64.984 156.939 65.496 156.512 66.008 156C66.9467 155.061 67.6933 153.952 68.248 152.672C68.8027 151.392 69.08 150.048 69.08 148.64C69.08 147.232 68.8027 145.888 68.248 144.608C67.6933 143.328 66.9467 142.219 66.008 141.28C65.7947 141.067 65.56 140.853 65.304 140.64C65.048 140.427 64.7707 140.235 64.472 140.064C63.96 139.68 63.384 139.36 62.744 139.104C61.592 138.549 60.248 138.272 58.712 138.272ZM90.626 152.416C90.9247 153.568 91.4367 154.592 92.162 155.488C92.8873 156.384 93.8047 157.088 94.914 157.6C95.426 157.856 96.0873 158.069 96.898 158.24C97.5807 158.411 98.1353 158.752 98.562 159.264C99.0313 159.776 99.266 160.395 99.266 161.12C99.266 162.016 98.9033 162.763 98.178 163.36C97.4527 163.957 96.642 164.149 95.746 163.936C95.1913 163.808 94.658 163.659 94.146 163.488C93.634 163.317 93.1433 163.125 92.674 162.912C91.7353 162.485 90.882 161.995 90.114 161.44C89.346 160.885 88.642 160.267 88.002 159.584C86.8073 158.176 85.9113 156.533 85.314 154.656C84.9727 153.76 84.738 152.821 84.61 151.84C84.482 150.859 84.418 149.813 84.418 148.704V122.144C84.418 121.333 84.6953 120.651 85.25 120.096C85.8047 119.499 86.4873 119.2 87.298 119.2C88.1087 119.2 88.7913 119.499 89.346 120.096C89.9007 120.651 90.178 121.333 90.178 122.144V148.704C90.178 149.387 90.2207 150.027 90.306 150.624C90.3913 151.221 90.498 151.819 90.626 152.416ZM139.6 159.136C139.6 160.501 139.13 161.653 138.192 162.592C137.253 163.531 136.101 164 134.736 164H134.416C133.904 164 133.434 163.936 133.008 163.808C132.581 163.68 132.048 163.573 131.408 163.488C130.768 163.403 130.192 163.467 129.68 163.68C128.186 164.32 126.458 164.64 124.496 164.64C122.234 164.64 120.144 164.235 118.224 163.424C116.346 162.613 114.661 161.461 113.168 159.968C111.717 158.432 110.586 156.747 109.776 154.912C108.922 152.864 108.496 150.773 108.496 148.64C108.496 146.464 108.922 144.395 109.776 142.432C110.586 140.512 111.717 138.827 113.168 137.376C114.661 135.883 116.346 134.731 118.224 133.92C120.272 133.067 122.362 132.64 124.496 132.64C126.586 132.64 128.549 133.045 130.384 133.856C132.218 134.624 133.818 135.691 135.184 137.056C136.549 138.421 137.616 140.021 138.384 141.856C139.194 143.691 139.6 145.653 139.6 147.744V159.136ZM124.496 159.008C126.544 159.008 128.357 158.517 129.936 157.536C131.514 156.597 132.773 155.296 133.712 153.632C134.522 152.139 134.928 150.475 134.928 148.64C134.928 146.848 134.522 145.205 133.712 143.712C132.816 142.048 131.557 140.725 129.936 139.744C128.357 138.763 126.544 138.272 124.496 138.272C123.045 138.272 121.701 138.549 120.464 139.104C119.824 139.36 119.226 139.68 118.672 140.064C118.117 140.405 117.605 140.811 117.136 141.28C116.197 142.304 115.45 143.413 114.896 144.608C114.384 145.888 114.128 147.232 114.128 148.64C114.128 150.133 114.384 151.477 114.896 152.672C115.45 153.867 116.197 154.976 117.136 156C118.16 156.939 119.269 157.685 120.464 158.24C121.744 158.752 123.088 159.008 124.496 159.008ZM173.837 133.28C174.69 133.28 175.394 133.579 175.949 134.176C176.504 134.731 176.781 135.413 176.781 136.224V164V165.088C176.781 166.069 176.717 167.051 176.589 168.032C176.504 169.056 176.312 170.059 176.013 171.04C175.97 171.253 175.928 171.445 175.885 171.616C175.842 171.787 175.778 171.979 175.693 172.192C175.138 173.899 174.306 175.392 173.197 176.672C172.002 177.995 170.552 178.997 168.845 179.68C167.053 180.405 164.92 180.768 162.445 180.768C158.946 180.768 156.088 179.787 153.869 177.824C153.357 177.355 152.866 176.885 152.397 176.416C151.97 175.947 151.586 175.435 151.245 174.88C150.904 174.368 150.733 173.835 150.733 173.28C150.733 172.768 150.861 172.277 151.117 171.808C151.373 171.381 151.714 171.019 152.141 170.72C152.61 170.421 153.144 170.272 153.741 170.272C154.21 170.272 154.658 170.379 155.085 170.592C155.554 170.805 155.917 171.125 156.173 171.552C156.642 172.32 157.282 173.003 158.093 173.6C159.16 174.411 160.61 174.816 162.445 174.816C164.365 174.816 165.88 174.56 166.989 174.048C168.141 173.536 168.994 172.811 169.549 171.872C170.061 171.061 170.424 169.995 170.637 168.672C170.765 167.477 170.829 166.176 170.829 164.768V164V163.232C170.829 162.933 170.701 162.72 170.445 162.592C170.232 162.421 169.997 162.421 169.741 162.592C168.845 163.147 167.949 163.573 167.053 163.872C165.645 164.384 164.109 164.64 162.445 164.64C160.312 164.64 158.328 164.235 156.493 163.424C154.786 162.571 153.336 161.419 152.141 159.968C150.904 158.603 149.965 156.917 149.325 154.912C148.685 152.992 148.365 150.944 148.365 148.768V136.224C148.365 135.413 148.642 134.731 149.197 134.176C149.794 133.579 150.52 133.28 151.373 133.28C152.184 133.28 152.866 133.579 153.421 134.176C154.018 134.731 154.317 135.413 154.317 136.224V148.64C154.317 149.963 154.488 151.307 154.829 152.672C155.128 153.867 155.618 154.976 156.301 156C157.026 157.024 157.88 157.771 158.861 158.24C159.928 158.795 161.165 159.072 162.573 159.072C164.066 159.072 165.304 158.795 166.285 158.24C167.309 157.771 168.162 157.024 168.845 156C169.57 155.019 170.082 153.909 170.381 152.672C170.68 151.477 170.829 150.133 170.829 148.64V136.224C170.829 135.413 171.106 134.731 171.661 134.176C172.258 133.579 172.984 133.28 173.837 133.28ZM210.546 155.68C211.399 156.107 211.89 156.789 212.018 157.728C212.189 158.667 211.911 159.477 211.186 160.16C210.717 160.629 210.205 161.077 209.65 161.504C209.095 161.888 208.519 162.251 207.922 162.592C205.533 163.957 202.909 164.64 200.05 164.64C197.789 164.64 195.719 164.235 193.842 163.424C191.879 162.613 190.194 161.461 188.786 159.968C187.293 158.56 186.141 156.875 185.33 154.912C184.519 153.035 184.114 150.965 184.114 148.704C184.114 146.4 184.519 144.309 185.33 142.432C186.183 140.427 187.335 138.741 188.786 137.376C190.194 135.883 191.879 134.731 193.842 133.92C195.805 133.067 197.874 132.64 200.05 132.64C202.909 132.64 205.533 133.323 207.922 134.688C209.202 135.413 210.311 136.224 211.25 137.12C211.933 137.803 212.21 138.613 212.082 139.552C211.954 140.491 211.463 141.195 210.61 141.664C210.055 141.963 209.479 142.069 208.882 141.984C208.327 141.899 207.815 141.643 207.346 141.216C206.621 140.491 205.831 139.915 204.978 139.488C203.527 138.677 201.885 138.272 200.05 138.272C198.557 138.272 197.234 138.549 196.082 139.104C194.887 139.573 193.778 140.32 192.754 141.344C191.773 142.283 191.026 143.371 190.514 144.608C189.959 145.845 189.682 147.211 189.682 148.704C189.682 150.197 189.959 151.52 190.514 152.672C190.983 153.867 191.73 154.976 192.754 156C193.778 157.024 194.887 157.771 196.082 158.24C197.234 158.795 198.557 159.072 200.05 159.072C201.885 159.072 203.527 158.667 204.978 157.856C205.789 157.429 206.557 156.853 207.282 156.128C207.751 155.701 208.263 155.445 208.818 155.36C209.415 155.275 209.991 155.381 210.546 155.68ZM241.049 157.856C241.859 157.429 242.627 156.853 243.353 156.128C243.779 155.701 244.291 155.445 244.889 155.36C245.486 155.232 246.062 155.317 246.617 155.616C247.47 156.085 247.961 156.789 248.089 157.728C248.259 158.667 248.003 159.477 247.321 160.16C247.235 160.245 247.129 160.352 247.001 160.48C246.873 160.608 246.723 160.736 246.553 160.864C246.425 160.949 246.297 161.056 246.169 161.184C246.041 161.312 245.891 161.419 245.721 161.504C245.55 161.589 245.401 161.696 245.273 161.824C245.145 161.909 244.995 161.995 244.825 162.08C244.697 162.165 244.569 162.251 244.441 162.336C244.313 162.421 244.163 162.507 243.993 162.592C241.603 163.957 238.979 164.64 236.121 164.64C233.731 164.64 231.662 164.235 229.913 163.424C227.95 162.613 226.265 161.461 224.857 159.968C223.363 158.475 222.211 156.768 221.401 154.848C220.547 152.757 220.121 150.688 220.121 148.64C220.121 146.251 220.526 144.181 221.337 142.432C222.147 140.469 223.257 138.784 224.665 137.376C226.073 135.925 227.737 134.773 229.657 133.92C231.705 133.067 233.753 132.64 235.801 132.64C237.849 132.64 239.897 133.067 241.945 133.92C243.865 134.773 245.529 135.925 246.937 137.376C247.278 137.717 247.598 138.101 247.897 138.528C248.195 138.912 248.494 139.317 248.793 139.744C249.091 140.171 249.347 140.619 249.561 141.088C249.817 141.515 250.051 141.963 250.265 142.432C250.563 143.072 250.713 143.84 250.713 144.736C250.713 145.632 250.563 146.379 250.265 146.976C250.009 147.701 249.625 148.341 249.113 148.896C248.601 149.451 247.982 149.899 247.257 150.24L246.809 150.432C245.955 150.816 245.102 151.008 244.249 151.008H229.017C228.206 151.008 227.609 151.371 227.225 152.096C226.841 152.779 226.883 153.483 227.353 154.208C227.907 155.147 228.654 156 229.593 156.768C230.574 157.536 231.555 158.091 232.537 158.432C233.689 158.816 234.883 159.008 236.121 159.008C237.87 159.008 239.513 158.624 241.049 157.856ZM227.417 143.008C227.289 143.136 227.203 143.285 227.161 143.456C226.819 144.139 226.841 144.757 227.225 145.312C227.651 145.995 228.27 146.336 229.081 146.336H242.521C243.331 146.336 243.95 145.995 244.377 145.312C244.761 144.757 244.782 144.139 244.441 143.456C244.355 143.285 244.27 143.136 244.185 143.008C244.014 142.752 243.822 142.453 243.609 142.112C243.395 141.856 243.118 141.557 242.777 141.216C242.478 140.875 242.094 140.533 241.625 140.192C240.771 139.595 239.875 139.147 238.937 138.848C237.998 138.507 237.017 138.315 235.993 138.272H235.801H235.737C233.689 138.272 231.833 138.869 230.169 140.064C229.657 140.405 229.23 140.747 228.889 141.088C228.547 141.429 228.27 141.749 228.057 142.048C227.801 142.389 227.587 142.709 227.417 143.008Z" fill="#F2F2F2"/>
</svg>
