<svg width="60" height="65" viewBox="0 0 60 65" fill="none" xmlns="http://www.w3.org/2000/svg">
<path d="M40.2051 61V49.7729C40.3129 48.3896 40.1278 46.9989 39.6624 45.6934C39.197 44.3879 38.4617 43.1974 37.5056 42.2011C46.5231 41.1858 56 37.7335 56 21.8937C55.9993 17.8433 54.457 13.9483 51.6923 11.0147C53.0014 7.4711 52.9089 3.55421 51.4338 0.0777284C51.4338 0.0777284 48.0451 -0.937643 40.2051 4.3713C33.623 2.56922 26.6847 2.56922 20.1026 4.3713C12.2626 -0.937643 8.87385 0.0777284 8.87385 0.0777284C7.39882 3.55421 7.30626 7.4711 8.61538 11.0147C5.83011 13.97 4.28622 17.9003 4.30769 21.9807C4.30769 37.7045 13.7846 41.1567 22.8021 42.2882C21.8572 43.2744 21.1286 44.4506 20.6635 45.7402C20.1983 47.0298 20.0072 48.4038 20.1026 49.7729V61M20.1026 52.2968C5.74359 56.6484 5.74359 45.0442 0 43.5936L20.1026 52.2968Z" transform="translate(2 2)" stroke="#4F4F4F" stroke-width="4" stroke-linecap="round" stroke-linejoin="round"/>
</svg>
