<svg width="67" height="63" viewBox="0 0 67 63" fill="none" xmlns="http://www.w3.org/2000/svg">
<path d="M18.9 0C23.9126 0 28.7199 1.96296 32.2643 5.45706C35.8088 8.95116 37.8 13.6902 37.8 18.6316V40.3684H25.2V18.6316C25.2 16.9844 24.5363 15.4048 23.3548 14.2401C22.1733 13.0754 20.5709 12.4211 18.9 12.4211C17.2291 12.4211 15.6267 13.0754 14.4452 14.2401C13.2637 15.4048 12.6 16.9844 12.6 18.6316V40.3684H0V18.6316C0 13.6902 1.99124 8.95116 5.53568 5.45706C9.08012 1.96296 13.8874 0 18.9 0V0Z" transform="translate(27.2 20.6316)" stroke="black" stroke-width="3" stroke-linecap="round" stroke-linejoin="round"/>
<path d="M12.6 0H0V37.2632H12.6V0Z" transform="translate(2 23.7368)" stroke="black" stroke-width="3" stroke-linecap="round" stroke-linejoin="round"/>
<path d="M6.3 12.4211C9.77939 12.4211 12.6 9.64051 12.6 6.21053C12.6 2.78055 9.77939 0 6.3 0C2.82061 0 0 2.78055 0 6.21053C0 9.64051 2.82061 12.4211 6.3 12.4211Z" transform="translate(2 2)" stroke="black" stroke-width="3" stroke-linecap="round" stroke-linejoin="round"/>
</svg>
