<svg width="61" height="61" viewBox="0 0 61 61" fill="none" xmlns="http://www.w3.org/2000/svg">
<path d="M56.9982 42.6755V51.2562C57.0015 52.0528 56.838 52.8413 56.5182 53.5712C56.1985 54.3011 55.7295 54.9563 55.1413 55.4948C54.5532 56.0333 53.8588 56.4433 53.1027 56.6985C52.3466 56.9537 51.5454 57.0485 50.7505 56.9768C41.9315 56.0204 33.4602 53.0129 26.0174 48.1958C19.0928 43.8043 13.2219 37.9451 8.82171 31.0342C3.9782 23.5723 0.963988 15.0767 0.0232618 6.23566C-0.0483567 5.4447 0.0458308 4.64752 0.299827 3.89489C0.553822 3.14225 0.962061 2.45064 1.49855 1.86409C2.03504 1.27754 2.68803 0.808901 3.41594 0.488016C4.14385 0.16713 4.93073 0.00102521 5.72649 0.000277309H14.3243C15.7152 -0.0133846 17.0636 0.478167 18.1182 1.38331C19.1727 2.28845 19.8615 3.54542 20.0562 4.91994C20.4191 7.66598 21.0921 10.3622 22.0624 12.9573C22.448 13.981 22.5314 15.0937 22.3028 16.1633C22.0743 17.2329 21.5432 18.2148 20.7727 18.9924L17.133 22.625C21.2128 29.7858 27.1536 35.7148 34.3286 39.7866L37.9684 36.154C38.7476 35.385 39.7314 34.8551 40.8031 34.6269C41.8749 34.3988 42.9897 34.4821 44.0155 34.8669C46.6157 35.8353 49.3173 36.5069 52.0688 36.8691C53.461 37.0651 54.7324 37.765 55.6413 38.8355C56.5502 39.9061 57.0331 41.2727 56.9982 42.6755Z" transform="translate(2 2)" stroke="black" stroke-width="3" stroke-linecap="round" stroke-linejoin="round"/>
</svg>
